<?xml version="1.0" standalone="no"?>
<!DOCTYPE svg PUBLIC "-//W3C//DTD SVG 20010904//EN"
 "http://www.w3.org/TR/2001/REC-SVG-20010904/DTD/svg10.dtd">
<svg version="1.0" xmlns="http://www.w3.org/2000/svg"
 width="944.000000pt" height="944.000000pt" viewBox="0 0 944.000000 944.000000"
 preserveAspectRatio="xMidYMid meet">

<g transform="translate(0.000000,944.000000) scale(0.100000,-0.100000)"
fill="#000000" stroke="none">
<path d="M5351 9236 c7 -7 979 -396 989 -396 18 0 10 31 -13 53 -12 12 -91 95
-176 185 l-153 162 -326 0 c-179 0 -323 -2 -321 -4z"/>
<path d="M5075 9097 c-132 -62 -264 -124 -292 -137 -29 -13 -53 -26 -53 -29 0
-3 51 -27 113 -53 61 -26 368 -158 681 -292 313 -135 571 -244 574 -242 4 5
-56 75 -227 267 -47 52 -116 130 -155 174 -39 44 -91 102 -117 130 -25 27 -94
105 -153 173 -59 67 -113 122 -119 122 -7 0 -120 -51 -252 -113z"/>
<path d="M5440 9166 c0 -5 136 -172 177 -216 40 -45 55 -61 170 -197 53 -62
100 -110 106 -106 6 3 7 1 4 -4 -8 -13 17 -36 28 -25 5 4 5 1 1 -6 -10 -16 22
-54 37 -45 6 3 7 1 3 -5 -4 -6 16 -37 46 -69 29 -32 72 -80 95 -108 30 -35 44
-45 48 -35 3 8 39 114 80 235 74 218 74 220 52 228 -12 5 -26 10 -32 11 -5 1
-24 9 -41 19 -17 9 -76 34 -130 56 -54 22 -157 65 -229 96 -117 51 -335 143
-392 166 -13 5 -23 7 -23 5z"/>
<path d="M4675 8878 c-15 -18 -84 -91 -154 -163 -70 -71 -147 -152 -172 -179
l-44 -49 280 8 c154 3 302 8 329 10 27 2 175 7 330 11 155 4 290 10 300 14 14
5 -24 25 -140 75 -87 37 -276 119 -419 182 -143 64 -265 117 -271 120 -6 2
-24 -11 -39 -29z"/>
<path d="M6390 8808 c0 -13 27 -111 60 -218 33 -107 76 -255 97 -328 l37 -134
36 4 c19 3 89 19 155 38 66 18 212 57 325 87 113 29 248 65 300 79 52 14 140
37 195 51 98 24 145 45 145 62 0 12 -33 24 -225 77 -93 26 -208 58 -255 71
-47 13 -206 57 -355 98 -148 41 -293 82 -322 91 -29 8 -58 12 -65 8 -7 -4 -9
-3 -5 1 4 5 -14 15 -40 22 -70 18 -83 17 -83 -9z"/>
<path d="M6262 8553 c-45 -130 -81 -238 -79 -239 6 -7 352 -171 355 -169 3 2
-187 637 -193 643 -1 1 -39 -104 -83 -235z"/>
<path d="M5529 8496 c-2 -2 -103 -7 -224 -10 -121 -4 -301 -11 -400 -16 -99
-5 -270 -12 -380 -16 -130 -4 -204 -10 -211 -17 -11 -12 -177 -498 -172 -503
2 -1 147 55 323 125 176 70 492 194 702 276 333 130 411 165 375 165 -5 0 -11
-2 -13 -4z"/>
<path d="M5065 8266 c-308 -123 -641 -255 -740 -293 l-180 -71 -133 -243 c-73
-134 -153 -282 -179 -328 -25 -46 -39 -80 -32 -75 57 34 1839 1225 1839 1229
0 3 -3 5 -7 4 -5 0 -260 -101 -568 -223z"/>
<path d="M5619 8432 c-63 -44 -1411 -948 -1639 -1099 -85 -57 -149 -103 -142
-103 7 0 75 20 150 44 75 25 232 75 347 111 268 85 1154 366 1715 545 239 76
452 145 473 152 l38 14 -438 187 c-241 103 -441 187 -444 187 -3 0 -30 -17
-60 -38z"/>
<path d="M6470 8019 c-47 -15 -242 -78 -435 -139 -192 -61 -375 -119 -405
-129 -30 -10 -103 -33 -162 -51 -59 -19 -105 -37 -102 -42 3 -4 -1 -5 -9 -2
-8 3 -47 -6 -88 -20 -41 -13 -148 -47 -239 -76 -91 -29 -219 -70 -285 -91 -66
-21 -125 -39 -132 -39 -7 0 -13 -3 -13 -7 0 -5 -10 -9 -23 -10 -12 0 -35 -7
-52 -14 -16 -6 -36 -13 -44 -15 -41 -8 -613 -195 -609 -199 4 -4 130 -21 533
-75 165 -22 413 -56 550 -75 138 -19 369 -51 515 -70 146 -20 396 -54 555 -76
160 -22 355 -48 435 -59 80 -11 200 -27 268 -36 67 -10 124 -15 126 -13 2 2
-43 200 -100 439 -58 239 -125 521 -150 625 -24 105 -45 193 -47 196 -1 3 -40
-7 -87 -22z"/>
<path d="M3790 7145 c0 -6 127 -297 195 -445 31 -69 99 -219 150 -335 51 -115
240 -541 420 -945 180 -404 351 -789 380 -855 66 -152 124 -282 163 -365 16
-36 61 -137 100 -225 38 -88 110 -250 160 -360 49 -110 121 -272 160 -360 39
-88 84 -189 100 -225 27 -58 286 -641 437 -985 32 -71 67 -148 78 -170 l21
-40 12 80 c6 44 33 224 59 400 25 176 66 457 91 625 25 168 71 487 104 710 32
223 86 590 119 815 33 226 90 613 126 860 36 248 90 619 120 825 31 206 60
407 65 445 6 39 13 84 16 102 7 37 23 33 -241 68 -104 14 -289 40 -410 56
-121 17 -249 34 -285 39 -36 5 -164 22 -285 39 -121 17 -305 42 -410 56 -104
14 -251 34 -325 45 -74 10 -205 29 -290 40 -208 28 -561 77 -688 95 -107 16
-142 18 -142 10z"/>
<path d="M3750 7079 c0 -18 135 -831 241 -1449 16 -96 97 -575 179 -1065 83
-490 202 -1196 265 -1570 63 -374 131 -782 152 -906 l37 -227 200 -6 c531 -17
1276 -29 1276 -22 0 4 -25 64 -56 134 -164 371 -1052 2371 -1089 2452 -35 78
-297 669 -650 1465 -34 77 -159 358 -277 625 -119 267 -226 509 -238 538 -23
54 -40 67 -40 31z"/>
<path d="M3502 6102 c-117 -526 -300 -1353 -408 -1837 -107 -484 -224 -1010
-259 -1170 -76 -344 -160 -723 -215 -965 -22 -96 -89 -402 -151 -680 -61 -278
-153 -694 -204 -925 -52 -231 -92 -421 -91 -423 2 -1 205 143 452 321 247 177
530 381 629 452 99 71 333 240 520 375 187 135 419 302 515 371 96 69 203 145
237 170 34 24 63 50 63 58 0 8 -59 368 -130 800 -131 786 -197 1190 -330 1996
-39 237 -136 822 -215 1300 -79 479 -149 902 -155 940 -17 110 -31 175 -38
175 -4 0 -103 -431 -220 -958z"/>
<path d="M6857 6343 c-46 -320 -79 -547 -233 -1603 -41 -283 -108 -744 -149
-1025 -41 -280 -115 -788 -165 -1129 -49 -340 -90 -625 -89 -635 1 -21 20 47
252 904 308 1136 418 1543 526 1945 55 206 157 582 226 835 69 253 124 470
123 482 -3 20 -424 551 -438 553 -3 0 -27 -147 -53 -327z"/>
</g>
</svg>
